<svg width="24" height="24" xmlns="http://www.w3.org/2000/svg">

 <g>
  <title>Layer 1</title>
  <g id="svg_1" stroke-width="1.5" stroke-linejoin="round" stroke-linecap="round" stroke="currentColor" fill="none">
   <path id="svg_2" d="m12,21.5a9.5,9.5 0 1 0 0,-19a9.5,9.5 0 0 0 0,19"/>
   <path id="svg_3" d="m5.37,5.19c4.24,1 2.25,4.72 2.19,8.5c0,4.1 3.36,1.62 3.21,3.56a12.93,12.93 0 0 0 0.83,4.24m3.14,-18.58c0,1.38 0,2.57 -0.74,2.78c-1.11,0.31 -0.28,4.23 -1,6.09c-0.72,1.86 2.53,2.5 4,1c1.47,-1.5 0.39,-2.78 2,-2.78c0.57,0 1.44,0.1 2.32,0.13"/>
  </g>
  <path stroke="null" id="svg_4" d="m23.17521,21.85625l-2.61638,-5.14687l0,-2.08438l0.26471,0c0.14559,0 0.26471,-0.14063 0.26471,-0.3125s-0.11912,-0.3125 -0.26471,-0.3125l-2.64709,0c-0.14559,0 -0.26471,0.14063 -0.26471,0.3125s0.11912,0.3125 0.26471,0.3125l0.26471,0l0,2.08438l-2.61638,5.14687c-0.5993,1.17875 -0.13659,2.14375 1.02813,2.14375l5.29417,0c1.16472,0 1.62743,-0.96438 1.02813,-2.14375m-5.91677,-1.60625l1.71214,-3.36875l0,-2.25625l1.05883,0l0,2.25625l1.71214,3.36875l-4.4831,0z" fill="currentColor"/>
 </g>
</svg>